<svg width="24" height="24" viewBox="0 0 24 24" fill="currentColor" xmlns="http://www.w3.org/2000/svg">
  <path d="M 7.0917969 0 C 7.0917969 1.1366389 6.6597674 2.2275208 5.8925781 3.03125 C 5.1253889 3.8349792 4.0849789 4.2851562 3 4.2851562 L 3 13.259766 C 2.99999 14.953664 3.4363696 16.615667 4.2617188 18.072266 C 5.0870679 19.528764 6.2700145 20.72601 7.6894531 21.537109 L 12 24 L 16.310547 21.537109 C 17.730045 20.72601 18.912882 19.528764 19.738281 18.072266 C 20.56358 16.615667 21 14.953664 21 13.259766 L 21 4.2851562 C 19.915001 4.2851562 18.874621 3.8349792 18.107422 3.03125 C 17.340223 2.2275208 16.908203 1.1366389 16.908203 0 L 7.0917969 0 z M 11 8 L 13 8 L 13 11 L 16 11 L 16 13 L 13 13 L 13 16 L 11 16 L 11 13 L 8 13 L 8 11 L 11 11 L 11 8 z " />
</svg>
